<svg xmlns="http://www.w3.org/2000/svg" xmlns:xlink="http://www.w3.org/1999/xlink" width="200" zoomAndPan="magnify" viewBox="0 0 150 149.999998" height="200" preserveAspectRatio="xMidYMid meet" version="1.0"><defs><clipPath id="40c06589dd"><path d="M 11.566406 63.550781 L 27.074219 63.550781 L 27.074219 81.65625 L 11.566406 81.65625 Z M 11.566406 63.550781 " clip-rule="nonzero"/></clipPath><clipPath id="c66b79c1c1"><path d="M 20.636719 73.871094 L 21.910156 73.875 C 22.355469 73.890625 22.472656 73.652344 22.433594 73.253906 L 21.890625 67.351562 C 21.878906 67.234375 21.8125 67.125 21.773438 67.011719 L 21.648438 67.253906 C 20.898438 68.976562 20.21875 70.570312 19.507812 72.160156 C 18.738281 73.886719 18.730469 73.878906 20.636719 73.871094 M 22.5625 63.601562 L 22.753906 63.601562 C 25.027344 63.601562 25.015625 63.601562 25.269531 65.828125 L 26.941406 80.183594 C 26.960938 80.324219 26.980469 80.464844 26.992188 80.605469 C 27.0625 81.519531 27.0625 81.523438 26.113281 81.550781 L 25.257812 81.554688 C 22.910156 81.554688 22.910156 81.554688 22.78125 79.128906 C 22.660156 76.886719 22.660156 76.875 20.453125 76.886719 C 19.511719 76.894531 18.371094 76.632812 17.6875 77.070312 C 17.011719 77.503906 16.695312 78.628906 16.425781 79.507812 C 15.925781 81.144531 15.023438 81.777344 13.246094 81.597656 C 11.25 81.398438 11.261719 81.570312 12.171875 79.710938 L 19.027344 65.570312 C 19.066406 65.484375 19.09375 65.394531 19.132812 65.308594 C 19.945312 63.597656 19.945312 63.597656 21.851562 63.601562 L 22.5625 63.601562 " clip-rule="nonzero"/></clipPath><clipPath id="a77b6220a6"><path d="M 43.878906 68 L 57.542969 68 L 57.542969 81.875 L 43.878906 81.875 Z M 43.878906 68 " clip-rule="nonzero"/></clipPath><clipPath id="6ad630c6f7"><path d="M 48.011719 76.308594 C 48.035156 76.699219 48.027344 76.9375 48.066406 77.167969 C 48.316406 78.628906 49.503906 79.121094 50.648438 78.195312 C 51.074219 77.851562 51.417969 77.367188 51.691406 76.886719 C 52.445312 75.558594 52.695312 74.070312 52.910156 72.578125 C 53.109375 71.210938 52.976562 71.03125 51.632812 71.300781 C 51.101562 71.40625 50.554688 71.667969 50.136719 72.011719 C 48.742188 73.144531 48.167969 74.710938 48.015625 76.308594 M 53.511719 68.097656 L 56.308594 68.492188 C 57.554688 68.695312 57.628906 68.789062 57.394531 70.078125 L 56.269531 75.914062 C 56.015625 77.496094 55.847656 79.09375 55.753906 80.691406 C 55.710938 81.367188 55.542969 81.621094 54.855469 81.5625 L 53.011719 81.574219 C 52.382812 81.613281 52.179688 81.339844 52.214844 80.738281 L 52.183594 79.289062 C 51.890625 79.652344 51.609375 80.03125 51.289062 80.371094 C 49.992188 81.75 47.957031 82.230469 46.359375 81.550781 C 44.472656 80.742188 43.886719 79.066406 43.910156 77.269531 C 43.941406 74.703125 44.734375 72.351562 46.71875 70.539062 C 48.648438 68.777344 50.949219 68.132812 53.511719 68.097656 " clip-rule="nonzero"/></clipPath><clipPath id="7c65111c8c"><path d="M 64.15625 68.429688 L 78.796875 68.429688 L 78.796875 87.511719 L 64.15625 87.511719 Z M 64.15625 68.429688 " clip-rule="nonzero"/></clipPath><clipPath id="c18911374a"><path d="M 68.089844 68.472656 C 70.035156 68.472656 70.066406 68.46875 70.386719 70.402344 L 71.085938 75.441406 C 71.136719 75.777344 71.292969 76.09375 71.398438 76.421875 L 71.875 75.613281 C 72.734375 73.527344 73.617188 71.441406 74.414062 69.328125 C 74.65625 68.691406 74.941406 68.414062 75.636719 68.460938 L 78.328125 68.480469 C 78.734375 68.480469 78.796875 68.699219 78.683594 69.027344 L 78.558594 69.277344 C 76.617188 73.101562 74.789062 76.828125 72.839844 80.488281 C 71.726562 82.566406 70.433594 84.578125 68.445312 85.957031 C 67.566406 86.566406 66.539062 86.960938 65.566406 87.425781 C 65.199219 87.601562 64.921875 87.46875 64.855469 87.03125 L 64.832031 86.84375 C 64.609375 85.976562 64.171875 85.171875 64.269531 84.433594 C 64.382812 83.554688 65.582031 83.789062 66.148438 83.253906 L 67.460938 82.1875 C 68.351562 81.40625 68.632812 80.539062 68.324219 79.296875 C 67.519531 76.007812 66.886719 72.679688 66.199219 69.363281 C 66.023438 68.503906 66.042969 68.496094 66.957031 68.476562 L 68.089844 68.476562 " clip-rule="nonzero"/></clipPath><clipPath id="854dd5d6e0"><path d="M 28.917969 68.105469 L 42.363281 68.105469 L 42.363281 81.65625 L 28.917969 81.65625 Z M 28.917969 68.105469 " clip-rule="nonzero"/></clipPath><clipPath id="bb76fa08da"><path d="M 30.753906 81.554688 C 28.742188 81.542969 28.773438 81.550781 29.160156 79.527344 L 31 69.359375 C 31.121094 68.613281 31.394531 68.390625 32.085938 68.46875 L 33.363281 68.480469 C 33.734375 68.496094 34.21875 68.417969 34.4375 68.617188 C 34.609375 68.777344 34.445312 69.292969 34.457031 69.652344 L 34.527344 69.976562 C 34.714844 70.035156 34.886719 69.953125 35.015625 69.828125 C 36.007812 68.886719 37.152344 68.28125 38.535156 68.203125 C 40.914062 68.074219 42.296875 69.339844 42.296875 71.738281 C 42.296875 72.675781 42.148438 73.621094 41.988281 74.546875 L 40.882812 80.390625 C 40.664062 81.53125 40.664062 81.554688 39.578125 81.546875 L 36.90625 81.445312 C 37.019531 80.582031 37.101562 79.710938 37.242188 78.847656 L 38.167969 73.554688 C 38.292969 72.757812 38.363281 71.90625 37.464844 71.4375 C 36.847656 71.121094 35.765625 71.53125 35.207031 72.476562 C 34.640625 73.433594 34.152344 74.480469 33.859375 75.550781 C 33.453125 77.046875 33.253906 78.597656 32.980469 80.132812 C 32.726562 81.554688 32.734375 81.554688 31.324219 81.554688 L 30.945312 81.554688 " clip-rule="nonzero"/></clipPath><clipPath id="c910b8eea5"><path d="M 95.492188 68 L 106.121094 68 L 106.121094 81.875 L 95.492188 81.875 Z M 95.492188 68 " clip-rule="nonzero"/></clipPath><clipPath id="76dff5be22"><path d="M 102.960938 68.078125 L 105.457031 68.511719 C 106.019531 68.621094 106.257812 68.953125 105.996094 69.527344 L 105.921875 69.699219 C 105.675781 70.355469 105.609375 71.109375 105.199219 71.429688 C 104.921875 71.644531 104.171875 71.210938 103.625 71.136719 C 103.164062 71.070312 102.65625 70.996094 102.226562 71.117188 C 101.820312 71.230469 101.335938 71.519531 101.160156 71.867188 C 100.886719 72.410156 101.277344 72.835938 101.78125 73.117188 L 103.613281 74.199219 C 105.582031 75.5 106.101562 77.511719 104.839844 79.464844 C 104.402344 80.144531 103.699219 80.800781 102.96875 81.121094 C 100.765625 82.09375 98.480469 82.074219 96.21875 81.203125 C 95.65625 80.988281 95.34375 80.707031 95.695312 80.039062 C 95.996094 79.464844 96.039062 78.636719 96.484375 78.296875 C 96.769531 78.074219 97.574219 78.554688 98.152344 78.671875 C 98.753906 78.796875 99.363281 78.941406 99.964844 78.925781 C 100.601562 78.910156 101.207031 78.628906 101.347656 77.921875 C 101.457031 77.355469 101.101562 76.960938 100.609375 76.675781 L 98.792969 75.582031 C 96.421875 73.945312 96.417969 70.984375 98.785156 69.292969 C 100.027344 68.402344 101.4375 68.113281 102.964844 68.082031 " clip-rule="nonzero"/></clipPath><clipPath id="8ad03c5981"><path d="M 77.820312 68 L 88.445312 68 L 88.445312 81.875 L 77.820312 81.875 Z M 77.820312 68 " clip-rule="nonzero"/></clipPath><clipPath id="faa62edb90"><path d="M 84.855469 68.03125 C 85.996094 68.226562 86.929688 68.359375 87.847656 68.558594 C 88.253906 68.644531 88.515625 68.914062 88.234375 69.394531 L 88.15625 69.664062 C 87.878906 70.363281 87.789062 71.113281 87.375 71.421875 C 87.082031 71.636719 86.34375 71.175781 85.796875 71.152344 C 85.152344 71.125 84.464844 71.113281 83.875 71.324219 C 83.117188 71.59375 83.054688 72.363281 83.652344 72.90625 L 84.480469 73.449219 C 84.847656 73.660156 85.226562 73.851562 85.601562 74.054688 C 88.683594 75.707031 88.121094 79.441406 85.667969 80.851562 C 83.238281 82.25 80.695312 82.070312 78.160156 81.074219 L 78.058594 81.046875 C 77.4375 80.144531 78.246094 79.476562 78.371094 78.710938 C 78.464844 78.179688 78.753906 78.050781 79.296875 78.269531 C 79.945312 78.535156 80.636719 78.722656 81.328125 78.859375 C 81.726562 78.933594 82.160156 78.859375 82.578125 78.8125 C 83.09375 78.75 83.535156 78.453125 83.53125 77.929688 C 83.53125 77.566406 83.304688 77.105469 83.027344 76.855469 C 82.617188 76.480469 82.078125 76.246094 81.59375 75.957031 C 80.21875 75.152344 79.167969 74.160156 79.292969 72.375 C 79.414062 70.625 80.339844 69.433594 81.886719 68.800781 C 82.867188 68.398438 83.957031 68.253906 84.851562 68.035156 " clip-rule="nonzero"/></clipPath><clipPath id="a28b4106b7"><path d="M 58.191406 62.574219 L 65.566406 62.574219 L 65.566406 81.65625 L 58.191406 81.65625 Z M 58.191406 62.574219 " clip-rule="nonzero"/></clipPath><clipPath id="778f9c385e"><path d="M 60.035156 81.613281 L 58.230469 81.417969 C 58.332031 80.820312 58.421875 80.222656 58.53125 79.625 L 61.496094 63.777344 C 61.714844 62.597656 61.707031 62.597656 62.945312 62.585938 L 63.320312 62.585938 C 65.742188 62.585938 65.746094 62.585938 65.335938 64.710938 L 62.292969 80.390625 C 62.066406 81.546875 62.066406 81.546875 60.894531 81.550781 L 60.042969 81.550781 C 60.039062 81.574219 60.039062 81.59375 60.035156 81.613281 " clip-rule="nonzero"/></clipPath><clipPath id="49f83d0860"><path d="M 89.097656 68.429688 L 95.386719 68.429688 L 95.386719 81.65625 L 89.097656 81.65625 Z M 89.097656 68.429688 " clip-rule="nonzero"/></clipPath><clipPath id="5408cf7674"><path d="M 91.023438 81.550781 C 88.925781 81.550781 88.953125 81.554688 89.367188 79.460938 L 91.25 69.480469 C 91.378906 68.753906 91.578125 68.371094 92.386719 68.460938 L 94.226562 68.472656 C 95.425781 68.484375 95.441406 68.484375 95.203125 69.730469 L 93.285156 79.554688 C 92.894531 81.554688 92.894531 81.554688 91.023438 81.554688 " clip-rule="nonzero"/></clipPath><clipPath id="67d0d39685"><path d="M 92.023438 62.789062 L 96.359375 62.789062 L 96.359375 67 L 92.023438 67 Z M 92.023438 62.789062 " clip-rule="nonzero"/></clipPath><clipPath id="aaa42d1ea0"><path d="M 92.070312 65.082031 C 92.058594 63.761719 92.933594 62.808594 94.207031 62.808594 C 95.726562 62.808594 96.207031 63.617188 96.277344 64.765625 C 96.351562 65.945312 95.261719 66.945312 94.011719 66.972656 C 92.820312 66.992188 92.078125 66.273438 92.066406 65.082031 " clip-rule="nonzero"/></clipPath><clipPath id="fd527d13cf"><path d="M 117.839844 73.582031 L 133.605469 73.582031 L 133.605469 87.5 L 117.839844 87.5 Z M 117.839844 73.582031 " clip-rule="nonzero"/></clipPath><clipPath id="a0318a2ff3"><path d="M 123.308594 87.492188 L 118.480469 87.496094 C 118.046875 87.496094 117.769531 87.449219 117.875 86.859375 L 118.480469 82.804688 C 118.539062 82.277344 118.699219 82.019531 119.25 82.078125 L 119.628906 82.074219 C 120.878906 82.09375 120.910156 82.125 120.785156 83.21875 C 120.585938 85.03125 120.585938 85.03125 122.429688 85.035156 L 125.976562 85.03125 C 126.953125 85.019531 126.925781 85 127.066406 84.007812 L 128.414062 74.484375 C 128.507812 73.796875 128.761719 73.628906 129.402344 73.65625 L 132.949219 73.667969 C 133.445312 73.660156 133.648438 73.871094 133.570312 74.351562 L 133.367188 75.460938 C 133.335938 76.035156 133.027344 76.132812 132.527344 76.132812 C 131.882812 76.136719 130.976562 75.992188 130.660156 76.339844 C 130.257812 76.785156 130.3125 77.660156 130.210938 78.351562 L 129.0625 86.480469 C 128.921875 87.472656 128.90625 87.484375 127.847656 87.488281 L 123.304688 87.492188 " clip-rule="nonzero"/></clipPath><clipPath id="83ab8fa8b5"><path d="M 116.75 62.492188 L 132.628906 62.492188 L 132.628906 76.191406 L 116.75 76.191406 Z M 116.75 62.492188 " clip-rule="nonzero"/></clipPath><clipPath id="c85ba6962c"><path d="M 127.167969 62.503906 L 131.996094 62.507812 C 132.320312 62.507812 132.675781 62.457031 132.582031 63.019531 L 132 67.078125 C 131.925781 67.710938 131.714844 68.042969 131.023438 67.925781 L 130.316406 67.925781 C 129.765625 67.976562 129.519531 67.75 129.609375 67.191406 L 129.871094 65.515625 C 129.949219 65.042969 129.792969 64.8125 129.273438 64.816406 L 124.445312 64.820312 C 123.730469 64.816406 123.460938 65.183594 123.375 65.851562 L 122.214844 74.410156 C 122.210938 74.460938 122.210938 74.503906 122.207031 74.554688 C 121.996094 76.152344 121.996094 76.152344 120.445312 76.152344 L 117.460938 76.160156 C 116.941406 76.171875 116.789062 75.9375 116.890625 75.464844 L 116.929688 75.28125 C 117.175781 73.882812 117.175781 73.882812 118.503906 73.875 L 119.214844 73.878906 C 119.761719 73.9375 119.925781 73.679688 119.992188 73.15625 L 121.082031 65.59375 C 121.152344 65.128906 121.242188 64.664062 121.316406 64.199219 C 121.394531 63.695312 121.296875 62.917969 121.578125 62.742188 C 122.039062 62.457031 122.738281 62.53125 123.335938 62.519531 L 127.171875 62.511719 " clip-rule="nonzero"/></clipPath><clipPath id="62a4d20a88"><path d="M 124.472656 66.730469 L 138.5 66.730469 L 138.5 80.757812 L 124.472656 80.757812 Z M 124.472656 66.730469 " clip-rule="nonzero"/></clipPath><clipPath id="4e181170db"><path d="M 130.03125 71.925781 L 125.207031 71.933594 C 124.648438 71.9375 124.445312 71.757812 124.542969 71.179688 L 125.066406 67.53125 C 125.128906 66.996094 125.34375 66.769531 125.875 66.808594 L 126.726562 66.816406 C 127.191406 66.800781 127.453125 66.96875 127.390625 67.476562 L 127.367188 67.761719 C 127.25 69.613281 127.25 69.613281 128.914062 69.613281 L 137.292969 69.617188 C 138.507812 69.617188 138.507812 69.628906 138.34375 70.757812 L 137.050781 79.871094 C 136.960938 80.570312 136.6875 80.71875 136.066406 80.699219 L 132.375 80.699219 C 131.773438 80.71875 131.46875 80.558594 131.601562 79.90625 L 131.6875 79.199219 C 131.742188 78.644531 131.984375 78.351562 132.601562 78.40625 L 134.304688 78.425781 C 134.75 78.4375 134.96875 78.296875 135.027344 77.792969 L 135.730469 72.738281 C 135.84375 72.058594 135.605469 71.914062 135 71.917969 Z M 130.03125 71.925781 " clip-rule="nonzero"/></clipPath><clipPath id="4a6a712478"><path d="M 112.074219 69.558594 L 125.996094 69.558594 L 125.996094 83.585938 L 112.074219 83.585938 Z M 112.074219 69.558594 " clip-rule="nonzero"/></clipPath><clipPath id="7ff53edf9c"><path d="M 120.515625 78.375 L 125.34375 78.371094 C 125.882812 78.363281 126.078125 78.5 125.960938 79.101562 C 125.734375 80.257812 125.558594 81.429688 125.460938 82.609375 C 125.398438 83.371094 125.039062 83.515625 124.367188 83.507812 C 122.980469 83.496094 122.976562 83.523438 123.1875 82.199219 L 123.300781 81.5 C 123.457031 80.867188 123.191406 80.679688 122.578125 80.683594 L 113.625 80.699219 C 113.292969 80.699219 112.964844 80.6875 112.632812 80.699219 C 112.101562 80.714844 112.03125 80.449219 112.101562 79.980469 L 113.4375 70.429688 C 113.511719 69.859375 113.671875 69.585938 114.296875 69.597656 L 118.417969 69.609375 C 118.808594 69.609375 119.074219 69.71875 118.953125 70.191406 L 118.882812 70.464844 C 118.6875 71.914062 118.6875 71.914062 117.34375 71.925781 L 116.964844 71.925781 C 115.558594 71.945312 115.574219 71.945312 115.414062 73.171875 L 114.859375 77.246094 C 114.730469 78.351562 114.753906 78.367188 115.828125 78.375 L 120.515625 78.375 " clip-rule="nonzero"/></clipPath></defs><g clip-path="url(#40c06589dd)"><g clip-path="url(#c66b79c1c1)"><path fill="#776e6b" d="M 10.15625 61.164062 L 107.53125 61.164062 L 107.53125 88.921875 L 10.15625 88.921875 Z M 10.15625 61.164062 " fill-opacity="1" fill-rule="nonzero"/></g></g><g clip-path="url(#a77b6220a6)"><g clip-path="url(#6ad630c6f7)"><path fill="#918a87" d="M 10.15625 61.164062 L 107.53125 61.164062 L 107.53125 88.921875 L 10.15625 88.921875 Z M 10.15625 61.164062 " fill-opacity="1" fill-rule="nonzero"/></g></g><g clip-path="url(#7c65111c8c)"><g clip-path="url(#c18911374a)"><path fill="#918a87" d="M 10.15625 61.164062 L 107.53125 61.164062 L 107.53125 88.921875 L 10.15625 88.921875 Z M 10.15625 61.164062 " fill-opacity="1" fill-rule="nonzero"/></g></g><g clip-path="url(#854dd5d6e0)"><g clip-path="url(#bb76fa08da)"><path fill="#776e6b" d="M 10.15625 61.164062 L 107.53125 61.164062 L 107.53125 88.921875 L 10.15625 88.921875 Z M 10.15625 61.164062 " fill-opacity="1" fill-rule="nonzero"/></g></g><g clip-path="url(#c910b8eea5)"><g clip-path="url(#76dff5be22)"><path fill="#918a87" d="M 10.15625 61.164062 L 107.53125 61.164062 L 107.53125 88.921875 L 10.15625 88.921875 Z M 10.15625 61.164062 " fill-opacity="1" fill-rule="nonzero"/></g></g><g clip-path="url(#8ad03c5981)"><g clip-path="url(#faa62edb90)"><path fill="#918a87" d="M 10.15625 61.164062 L 107.53125 61.164062 L 107.53125 88.921875 L 10.15625 88.921875 Z M 10.15625 61.164062 " fill-opacity="1" fill-rule="nonzero"/></g></g><g clip-path="url(#a28b4106b7)"><g clip-path="url(#778f9c385e)"><path fill="#918a87" d="M 10.15625 61.164062 L 107.53125 61.164062 L 107.53125 88.921875 L 10.15625 88.921875 Z M 10.15625 61.164062 " fill-opacity="1" fill-rule="nonzero"/></g></g><g clip-path="url(#49f83d0860)"><g clip-path="url(#5408cf7674)"><path fill="#918a87" d="M 10.15625 61.164062 L 107.53125 61.164062 L 107.53125 88.921875 L 10.15625 88.921875 Z M 10.15625 61.164062 " fill-opacity="1" fill-rule="nonzero"/></g></g><g clip-path="url(#67d0d39685)"><g clip-path="url(#aaa42d1ea0)"><path fill="#918a87" d="M 10.15625 61.164062 L 107.53125 61.164062 L 107.53125 88.921875 L 10.15625 88.921875 Z M 10.15625 61.164062 " fill-opacity="1" fill-rule="nonzero"/></g></g><g clip-path="url(#fd527d13cf)"><g clip-path="url(#a0318a2ff3)"><path fill="#918a87" d="M 110.664062 61.078125 L 139.804688 61.078125 L 139.804688 88.914062 L 110.664062 88.914062 Z M 110.664062 61.078125 " fill-opacity="1" fill-rule="nonzero"/></g></g><g clip-path="url(#83ab8fa8b5)"><g clip-path="url(#c85ba6962c)"><path fill="#918a87" d="M 110.664062 61.078125 L 139.804688 61.078125 L 139.804688 88.914062 L 110.664062 88.914062 Z M 110.664062 61.078125 " fill-opacity="1" fill-rule="nonzero"/></g></g><g clip-path="url(#62a4d20a88)"><g clip-path="url(#4e181170db)"><path fill="#776e6b" d="M 110.664062 61.078125 L 139.804688 61.078125 L 139.804688 88.914062 L 110.664062 88.914062 Z M 110.664062 61.078125 " fill-opacity="1" fill-rule="nonzero"/></g></g><g clip-path="url(#4a6a712478)"><g clip-path="url(#7ff53edf9c)"><path fill="#776e6b" d="M 110.664062 61.078125 L 139.804688 61.078125 L 139.804688 88.914062 L 110.664062 88.914062 Z M 110.664062 61.078125 " fill-opacity="1" fill-rule="nonzero"/></g></g></svg>